HIERARCHY
ROOT Hips
{
	OFFSET 0.000000 89.005402 0.000000
	CHANNELS 6 Xposition Yposition Zposition Xrotation Yrotation Zrotation
	JOINT Spine
	{
		OFFSET 0.116900 10.681000 0.373400
		CHANNELS 3 Xrotation Yrotation Zrotation
		JOINT Spine1
		{
			OFFSET 0.000000 13.840401 0.053500
			CHANNELS 3 Xrotation Yrotation Zrotation
			JOINT Spine2
			{
				OFFSET 0.000000 14.712700 -0.366200
				CHANNELS 3 Xrotation Yrotation Zrotation
				JOINT Neck
				{
					OFFSET 0.000000 35.415497 -3.314200
					CHANNELS 3 Xrotation Yrotation Zrotation
					JOINT Head
					{
						OFFSET 0.000000 16.899200 1.218300
						CHANNELS 3 Xrotation Yrotation Zrotation
						JOINT HeadTop_End
						{
							OFFSET 0.000000 22.206207 2.192500
							CHANNELS 3 Xrotation Yrotation Zrotation
							End Site
							{
								OFFSET 0.000000 22.314178 0.000000
							}
						}
					}
				}
				JOINT LeftShoulder
				{
					OFFSET 12.896400 26.716293 -4.548400
					CHANNELS 3 Xrotation Yrotation Zrotation
					JOINT LeftArm
					{
						OFFSET 19.027000 -4.857010 -1.718400
						CHANNELS 3 Xrotation Yrotation Zrotation
						JOINT LeftForeArm
						{
							OFFSET 24.179897 0.000000 0.000000
							CHANNELS 3 Xrotation Yrotation Zrotation
							JOINT LeftHand
							{
								OFFSET 27.156403 0.000000 0.000000
								CHANNELS 3 Xrotation Yrotation Zrotation
								JOINT LeftHandIndex1
								{
									OFFSET 16.441200 0.000000 0.000000
									CHANNELS 3 Xrotation Yrotation Zrotation
									JOINT LeftHandIndex2
									{
										OFFSET 4.821899 0.000000 0.000000
										CHANNELS 3 Xrotation Yrotation Zrotation
										JOINT LeftHandIndex3
										{
											OFFSET 6.386497 0.000000 0.000000
											CHANNELS 3 Xrotation Yrotation Zrotation
											JOINT LeftHandIndex4
											{
												OFFSET 5.188988 0.000000 0.000000
												CHANNELS 3 Xrotation Yrotation Zrotation
												End Site
												{
													OFFSET -0.178703 5.185913 0.000177
												}
											}
										}
									}
								}
								JOINT LeftHandThumb1
								{
									OFFSET 6.534897 -5.032593 5.900300
									CHANNELS 3 Xrotation Yrotation Zrotation
									JOINT LeftHandThumb2
									{
										OFFSET 3.818176 -2.204422 2.204423
										CHANNELS 3 Xrotation Yrotation Zrotation
										JOINT LeftHandThumb3
										{
											OFFSET 3.252098 -1.877594 1.877601
											CHANNELS 3 Xrotation Yrotation Zrotation
											JOINT LeftHandThumb4
											{
												OFFSET 5.251778 -3.032120 3.032117
												CHANNELS 3 Xrotation Yrotation Zrotation
												End Site
												{
													OFFSET 0.000023 6.780014 0.000000
												}
											}
										}
									}
								}
							}
						}
					}
				}
				JOINT RightShoulder
				{
					OFFSET -12.896300 26.716293 -4.548400
					CHANNELS 3 Xrotation Yrotation Zrotation
					JOINT RightArm
					{
						OFFSET -19.027000 -4.857010 -1.718400
						CHANNELS 3 Xrotation Yrotation Zrotation
						JOINT RightForeArm
						{
							OFFSET -24.179897 0.000000 0.000000
							CHANNELS 3 Xrotation Yrotation Zrotation
							JOINT RightHand
							{
								OFFSET -27.156403 0.000000 0.000000
								CHANNELS 3 Xrotation Yrotation Zrotation
								JOINT RightHandThumb1
								{
									OFFSET -6.591202 -4.852203 5.988100
									CHANNELS 3 Xrotation Yrotation Zrotation
									JOINT RightHandThumb2
									{
										OFFSET -3.818176 -2.204422 2.204423
										CHANNELS 3 Xrotation Yrotation Zrotation
										JOINT RightHandThumb3
										{
											OFFSET -3.252098 -1.877594 1.877601
											CHANNELS 3 Xrotation Yrotation Zrotation
											JOINT RightHandThumb4
											{
												OFFSET -5.251778 -3.032120 3.032117
												CHANNELS 3 Xrotation Yrotation Zrotation
												End Site
												{
													OFFSET -0.000023 6.780014 0.000000
												}
											}
										}
									}
								}
								JOINT RightHandIndex1
								{
									OFFSET -16.029404 0.000000 0.000000
									CHANNELS 3 Xrotation Yrotation Zrotation
									JOINT RightHandIndex2
									{
										OFFSET -5.213303 0.000000 0.000000
										CHANNELS 3 Xrotation Yrotation Zrotation
										JOINT RightHandIndex3
										{
											OFFSET -6.386528 0.000000 0.000000
											CHANNELS 3 Xrotation Yrotation Zrotation
											JOINT RightHandIndex4
											{
												OFFSET -5.189026 0.000000 0.000000
												CHANNELS 3 Xrotation Yrotation Zrotation
												End Site
												{
													OFFSET 0.236702 5.183624 0.001972
												}
											}
										}
									}
								}
							}
						}
					}
				}
			}
		}
	}
	JOINT LeftUpLeg
	{
		OFFSET 14.073000 -7.904099 -1.463000
		CHANNELS 3 Xrotation Yrotation Zrotation
		JOINT LeftLeg
		{
			OFFSET -0.109806 -34.073280 4.093200
			CHANNELS 3 Xrotation Yrotation Zrotation
			JOINT LeftFoot
			{
				OFFSET 0.109806 -29.899420 -6.319000
				CHANNELS 3 Xrotation Yrotation Zrotation
				JOINT LeftToeBase
				{
					OFFSET 1.551100 -14.988700 20.535801
					CHANNELS 3 Xrotation Yrotation Zrotation
					JOINT LeftToe_End
					{
						OFFSET 0.221200 0.570800 13.248301
						CHANNELS 3 Xrotation Yrotation Zrotation
						End Site
						{
							OFFSET 0.000000 13.262435 0.000000
						}
					}
				}
			}
		}
	}
	JOINT RightUpLeg
	{
		OFFSET -13.839300 -7.904099 -1.463000
		CHANNELS 3 Xrotation Yrotation Zrotation
		JOINT RightLeg
		{
			OFFSET 0.109694 -34.073219 4.093300
			CHANNELS 3 Xrotation Yrotation Zrotation
			JOINT RightFoot
			{
				OFFSET -0.109694 -29.899384 -6.319200
				CHANNELS 3 Xrotation Yrotation Zrotation
				JOINT RightToeBase
				{
					OFFSET -1.551100 -14.988700 20.535801
					CHANNELS 3 Xrotation Yrotation Zrotation
					JOINT RightToe_End
					{
						OFFSET -0.221200 0.570900 13.248299
						CHANNELS 3 Xrotation Yrotation Zrotation
						End Site
						{
							OFFSET 0.000000 13.262440 0.000000
						}
					}
				}
			}
		}
	}
}
MOTION
Frames: 5
Frame Time: 0.033333
1.280241 85.586380 1.333727 -0.893325 1.577653 -4.937896 0.515820 -0.054480 2.944190 1.033747 -0.090496 5.728687 1.033748 -0.090497 5.728688 1.086073 -0.136602 -3.021334 1.546125 0.403404 -7.268038 -0.000000 0.000000 -0.000000 3.574292 -13.764935 -5.043943 5.274490 3.636211 -83.714890 -0.201515 -16.960026 -0.058780 -26.924281 4.586829 -8.934394 0.339120 4.695743 -7.886179 0.352043 2.640663 -20.590410 0.025828 0.717441 -10.176838 0.000001 -0.000001 0.000002 18.158977 -1.013683 11.037803 1.358233 32.830749 -3.242056 0.962810 9.482670 2.469822 0.000000 0.000001 -0.000000 4.512780 3.324817 5.471400 -0.147680 0.241855 67.294275 -0.210742 19.994224 0.074242 -10.537612 -10.014919 10.051387 18.163712 1.013484 -11.046311 1.364913 -32.828611 3.244148 0.823128 -8.587173 -1.777909 0.000001 0.000000 -0.000001 0.317291 -4.678750 7.878747 0.352094 -2.640969 20.590410 -0.209447 -0.081905 13.844954 0.000000 -0.000000 0.000001 -18.715009 10.993370 17.047877 25.368513 8.516187 2.335987 -5.068103 4.129750 -10.950658 -0.441380 0.000007 0.000001 0.000000 -0.000002 0.000000 1.436726 -4.289475 10.960621 10.256338 -5.288483 3.316056 -10.831542 1.132623 -8.249304 -0.556580 -0.000003 -0.000001 -0.000000 0.000000 -0.000000 
1.299663 85.599899 1.385108 -0.878954 1.554045 -4.936161 0.506966 -0.048591 2.943630 1.015736 -0.078398 5.712627 1.015737 -0.078398 5.712630 2.000334 -0.177147 -3.019322 1.085956 0.404931 -7.107167 -0.000001 -0.000000 0.000000 3.566910 -13.779282 -5.070302 5.297102 3.602169 -83.789708 -0.197655 -16.718368 -0.056873 -26.901849 4.517409 -8.810714 0.346797 4.749414 -8.517925 0.372580 2.694370 -21.222197 0.034042 0.774598 -10.807749 0.000000 -0.000001 -0.000000 18.223968 -1.129799 11.253326 1.358233 32.830749 -3.242058 0.962810 9.482670 2.469823 0.000000 -0.000000 0.000000 4.506574 3.398382 5.532361 -0.247731 0.221693 67.247857 -0.206545 19.841891 0.072353 -10.430485 -10.246654 9.864233 18.195240 0.946149 -11.016047 1.359589 -32.734064 3.260341 0.813288 -8.646197 -1.788833 -0.000002 -0.000000 0.000000 0.328157 -4.620182 7.224108 0.412331 -2.793777 22.394949 -0.209368 -0.086993 13.898613 -0.000000 -0.000000 -0.000002 -18.654985 11.013014 17.029547 25.326440 8.519103 2.324965 -5.101721 4.128014 -10.944024 -0.441374 -0.000007 0.000003 -0.000000 0.000000 0.000000 1.507899 -4.294538 10.924248 10.162410 -5.226928 3.327469 -10.814287 1.131766 -8.232920 -0.556579 0.000002 -0.000000 -0.000000 0.000000 -0.000000 
1.321722 85.612640 1.431384 -0.872410 1.521910 -4.939824 0.501043 -0.040728 2.943713 1.003500 -0.062278 5.699524 1.003499 -0.062278 5.699525 3.005702 -0.229319 -3.033438 0.665684 0.328310 -6.945549 -0.000001 0.000000 0.000000 3.567753 -13.786031 -5.064239 5.324185 3.581099 -83.865284 -0.194728 -16.603164 -0.055653 -26.823831 4.511182 -8.686277 0.355616 4.806718 -9.196119 0.395284 2.751760 -21.900390 0.043558 0.835850 -11.484953 -0.000000 -0.000000 -0.000001 18.296047 -1.239609 11.463479 1.358234 32.830749 -3.242058 0.962810 9.482671 2.469823 -0.000000 0.000001 0.000000 4.501886 3.554148 5.555813 -0.357864 0.190104 67.235549 -0.205263 19.670217 0.071277 -10.448803 -10.307503 9.904444 18.228168 0.875816 -10.984357 1.354020 -32.635306 3.277264 0.801798 -8.708181 -1.800266 -0.000001 -0.000006 -0.000001 0.340299 -4.558753 6.535957 0.480696 -2.952001 24.289017 -0.209288 -0.091827 13.949586 -0.000000 -0.000001 -0.000003 -18.592202 11.040652 17.025778 25.293849 8.522035 2.311018 -5.140619 4.128947 -10.940270 -0.436540 -0.000000 0.000002 0.000000 -0.000002 0.000000 1.579459 -4.261822 10.919968 10.055491 -5.199116 3.315147 -10.784081 1.133731 -8.215782 -0.556578 -0.000003 -0.000003 -0.000000 -0.000001 -0.000000 
1.346884 85.620300 1.470934 -0.885438 1.478794 -4.943219 0.507204 -0.025167 2.944612 1.015072 -0.030330 5.692520 1.015072 -0.030330 5.692520 4.074766 -0.292447 -3.082803 0.331157 0.117354 -6.831414 -0.000000 0.000000 -0.000000 3.555978 -13.807456 -5.132130 5.378698 3.538432 -83.839507 -0.192958 -16.639801 -0.055268 -26.763488 4.553787 -8.541146 0.366024 4.869399 -9.915328 0.420101 2.812335 -22.619741 0.054440 0.900687 -12.203239 0.000000 -0.000001 0.000004 18.374435 -1.343736 11.668939 1.358233 32.830749 -3.242058 0.962811 9.482673 2.469823 -0.000000 0.000000 0.000001 4.490977 3.871456 5.471876 -0.413926 0.153412 67.274365 -0.205634 19.539021 0.070977 -10.732571 -10.266026 9.915342 18.262408 0.802723 -10.951405 1.348191 -32.532659 3.294830 0.788614 -8.772944 -1.812219 0.000000 -0.000000 0.000000 0.353577 -4.493028 5.818044 0.557528 -3.114485 26.264395 -0.209209 -0.096490 13.998731 0.000000 -0.000001 0.000002 -18.522783 11.065067 17.013702 25.291113 8.520917 2.303696 -5.193752 4.156923 -10.935131 -0.424965 -0.000012 0.000001 -0.000000 -0.000000 0.000000 1.641753 -4.233840 10.904362 10.003450 -5.166492 3.300840 -10.778523 1.134513 -8.185922 -0.556579 -0.000002 -0.000003 -0.000000 -0.000000 -0.000000 
1.376706 85.628784 1.506485 -0.908398 1.411329 -4.933770 0.520340 0.000241 2.945749 1.040141 0.021649 5.687305 1.040141 0.021649 5.687304 5.215273 -0.363681 -3.168372 0.050554 -0.177965 -6.795146 -0.000001 0.000000 -0.000000 3.538404 -13.823649 -5.260003 5.402216 3.408246 -83.718032 -0.191570 -16.713017 -0.055087 -26.755338 4.592383 -8.393734 0.378192 4.937329 -10.670254 0.446981 2.875586 -23.375018 0.066747 0.968605 -12.957347 -0.000001 -0.000001 -0.000002 18.458340 -1.442823 11.870372 1.358232 32.830745 -3.242056 0.962810 9.482668 2.469823 0.000001 0.000002 0.000000 4.475072 4.359496 5.339743 -0.414321 0.148352 67.276359 -0.208055 19.457920 0.071508 -11.329236 -10.164020 9.995638 18.297836 0.727108 -10.917257 1.342136 -32.426467 3.313027 0.776192 -8.841308 -1.817021 0.000000 -0.000000 -0.000001 0.368107 -4.423498 5.073449 0.643068 -3.280039 28.312918 -0.209125 -0.101070 14.047019 0.000000 -0.000000 -0.000000 -18.425743 11.099948 16.989276 25.278016 8.519464 2.286486 -5.246678 4.213921 -10.923757 -0.422588 -0.000000 0.000004 -0.000000 0.000000 0.000000 1.694797 -4.216069 10.870351 9.980314 -5.098670 3.289485 -10.779282 1.136391 -8.160645 -0.556578 -0.000007 -0.000000 -0.000000 -0.000001 -0.000000 
